<?xml version="1.0" encoding="utf-8"?>
<!-- Generator: Adobe Illustrator 24.1.1, SVG Export Plug-In . SVG Version: 6.00 Build 0)  -->
<svg version="1.1" id="Capa_1" xmlns="http://www.w3.org/2000/svg" xmlns:xlink="http://www.w3.org/1999/xlink" x="0px" y="0px"
	 viewBox="0 0 119 33" style="enable-background:new 0 0 119 33;" xml:space="preserve">
<style type="text/css">
	.st0{fill:#FFFFFF;}
</style>
<g>
	<path className="st0" d="M2,22.1h6.8c0.1,0.4,0.3,0.7,0.6,1s0.8,0.5,1.3,0.6c0.6,0.1,1.2,0.2,2,0.2c1,0,1.8-0.1,2.4-0.3
		c0.6-0.2,0.9-0.5,0.9-1c0-0.3-0.2-0.6-0.5-0.8c-0.3-0.2-1-0.4-2-0.4l-3.2-0.2c-2.9-0.2-5-0.8-6.3-1.9c-1.3-1-1.9-2.4-1.9-4.2
		c0-1.4,0.4-2.6,1.2-3.6s2-1.7,3.5-2.2C8.2,8.9,10,8.7,12,8.7c1.9,0,3.7,0.3,5.2,0.8s2.7,1.3,3.6,2.3s1.4,2.1,1.5,3.4h-6.8
		c-0.1-0.3-0.2-0.6-0.5-0.8s-0.7-0.4-1.2-0.5s-1.1-0.2-1.9-0.2c-0.9,0-1.7,0.1-2.2,0.3s-0.8,0.5-0.8,0.9c0,0.3,0.2,0.5,0.5,0.7
		s0.9,0.3,1.8,0.4l3.6,0.2c1.9,0.1,3.4,0.4,4.6,0.8s2,1,2.6,1.8c0.5,0.8,0.8,1.7,0.8,2.9c0,1.4-0.4,2.7-1.3,3.7
		c-0.8,1.1-2,1.9-3.5,2.5s-3.3,0.9-5.3,0.9c-2.1,0-3.9-0.3-5.5-0.9s-2.8-1.4-3.7-2.4C2.5,24.6,2,23.4,2,22.1z"/>
	<path className="st0" d="M32.2,18.8L31,26l-2.5-2.8h14.7v5.3H24.4l1.4-9.7l-1.4-9.7H43v5.3H28.5l2.5-2.8L32.2,18.8z M42.2,16.5v4.6
		H27.6v-4.6H42.2z"/>
	<path className="st0" d="M63.8,23.6L62,24V9.1h6.4v19.3h-8.3l-9.6-14.9l1.8-0.4v15.3h-6.4V9.1h8.6L63.8,23.6z M49.9,7.7
		c0.2-1.5,0.7-2.7,1.5-3.6s2-1.3,3.6-1.3c0.5,0,0.9,0.1,1.4,0.2c0.4,0.1,0.9,0.2,1.2,0.4c0.4,0.1,0.8,0.3,1.1,0.4
		C59,3.9,59.4,4,59.7,4s0.6-0.1,0.9-0.2C60.8,3.5,60.9,3.3,61,3h4.1c-0.2,1.5-0.7,2.7-1.5,3.6c-0.8,0.9-2,1.3-3.6,1.3
		c-0.5,0-0.9-0.1-1.4-0.2c-0.4-0.1-0.9-0.2-1.2-0.4C57,7.2,56.6,7,56.3,6.9s-0.7-0.2-1-0.2s-0.6,0.1-0.9,0.2
		c-0.2,0.2-0.4,0.4-0.5,0.7L49.9,7.7L49.9,7.7z"/>
	<path className="st0" d="M87.2,9.1l8.5,19.3h-7.1L81.9,12h1.7L77,28.5h-7.1l8.5-19.3h8.8V9.1z M76.1,25.2v-5.3h13.2v5.3H76.1z"/>
	<path className="st0" d="M102.8,9.1v16.4l-3-3h14.4v5.9h-19V9.1H102.8z"/>
</g>
</svg>
